<svg width="270" height="31" viewBox="0 0 270 31" fill="none" xmlns="http://www.w3.org/2000/svg">
<path d="M123.152 7.14537C126.106 7.14537 128.202 5.52092 128.615 1.97363H125.725C125.439 3.23342 124.709 3.86331 123.184 3.86331C121.628 3.86331 120.833 3.23342 120.579 1.97363H117.689C118.07 5.52092 120.198 7.14537 123.152 7.14537Z" fill="black"/>
<path d="M63.5331 21.5999V8.77002H59.8804V27.501H63.6919L71.0609 14.439V27.501H74.7136V8.77002H70.9021L63.5331 21.5999Z" fill="black"/>
<path d="M48.3823 8.93592C45.4918 8.93592 43.0143 10.3283 41.7438 12.9473C41.9344 8.70386 42.7285 6.18429 47.4294 5.52125L54.7348 4.46038L54.449 0.283203L46.8259 1.37723C40.2827 2.33864 38.4087 7.60983 38.4087 15.931C38.4087 23.1914 41.5532 27.8327 47.4294 27.8327C53.1467 27.8327 56.2595 23.2245 56.2595 17.8539C56.2595 12.4832 52.7973 8.93592 48.3823 8.93592ZM47.4294 23.7218C44.126 23.7218 42.1567 21.2022 42.1567 17.456V15.5332C42.8555 14.0745 44.6978 12.9142 47.4294 12.9142C50.288 12.9142 52.4797 14.3397 52.4797 17.887C52.4797 21.4343 50.7327 23.7218 47.4294 23.7218Z" fill="black"/>
<path d="M145.99 8.77002V15.7651H138.875V8.77002H135.222V27.501H138.875V19.6439H145.99V27.501H149.643V8.77002H145.99Z" fill="black"/>
<path d="M119.468 21.5999V8.77002H115.815V27.501H119.626L126.964 14.439V27.501H130.616V8.77002H126.837L119.468 21.5999Z" fill="black"/>
<path d="M81.2888 20.2075C80.8759 22.2961 80.3359 23.1912 79.2242 23.1912C78.6207 23.1912 78.176 23.1249 77.8584 23.0255V27.3684C78.3031 27.5673 78.716 27.7331 79.6689 27.7331C81.5747 27.7331 82.9087 26.5727 83.5757 24.8157C83.9886 23.7217 84.211 22.1967 84.4333 20.2738C84.6239 18.351 84.7827 15.7651 84.7827 12.7483H89.6424V27.501H93.2952V8.77002H81.7335C81.7335 14.4059 81.5747 18.1189 81.2888 20.2075Z" fill="black"/>
<path d="M110.574 22.4286L110.638 15.0025C110.701 10.2949 107.938 8.37207 103.936 8.37207C100.633 8.37207 97.6151 10.2617 97.1704 14.6378H100.664C100.855 12.9139 102.157 12.3503 103.904 12.3503C105.715 12.3503 106.89 12.9139 107.08 14.8367L102.602 16.7264C99.5526 18.0194 97.2339 19.5112 97.2339 22.5944C97.2339 25.777 98.9491 27.8324 102.348 27.8324C104.698 27.8324 106.191 26.6721 107.366 24.4177C107.557 26.6721 108.986 27.6666 111.464 27.6666H112.48V24.053H112.194C111.019 24.053 110.574 23.5558 110.574 22.4286ZM103.714 23.8873C101.998 23.8873 100.76 23.4232 100.76 21.7987C100.76 20.3732 101.808 19.7764 103.618 18.9808L107.112 17.4558L107.08 22.528C106.445 23.2905 105.238 23.8873 103.714 23.8873Z" fill="black"/>
<path d="M15.1901 30.7168C23.2595 30.7168 29.801 23.8891 29.801 15.4668C29.801 7.04445 23.2595 0.216797 15.1901 0.216797C7.12065 0.216797 0.579102 7.04445 0.579102 15.4668C0.579102 23.8891 7.12065 30.7168 15.1901 30.7168Z" fill="#FFC800"/>
<path d="M21.4472 26.8049C16.4922 29.7886 11.0925 30.3191 7.66211 28.5288C12.0772 31.2805 17.6992 31.5125 22.4636 28.6283C27.2281 25.7772 29.8327 20.5392 29.7691 15.2017C29.5468 19.2462 26.434 23.8212 21.4472 26.8049Z" fill="black"/>
<path d="M17.0324 1.34383C18.0489 3.16719 15.6031 6.58187 11.601 9.00198C7.59885 11.3889 3.53319 11.8862 2.51678 10.0628C2.48502 9.96339 2.42149 9.89709 2.42149 9.79763C2.16739 8.93567 2.48502 7.84165 3.21556 6.71448C3.34262 6.54872 3.46967 6.3498 3.59672 6.18404C4.74019 4.65904 6.16952 3.2998 7.88472 2.27209C9.59992 1.24437 11.4104 0.614477 13.2527 0.34926C13.475 0.316108 13.6656 0.282955 13.8879 0.282955C15.222 0.183499 16.2701 0.448716 16.8419 1.11176C16.9054 1.17806 16.9689 1.24437 17.0324 1.34383Z" fill="black"/>
<path d="M23.2261 3.29977C24.973 6.48238 21.4474 12.0188 15.3171 15.7318C9.18685 19.4449 2.8025 19.8427 1.05554 16.6601C0.769671 16.1297 0.610856 15.5329 0.579093 14.903C0.515567 17.0248 0.864959 19.2128 1.65903 21.2682C1.78608 21.5666 1.91314 21.865 2.04019 22.1965C2.04019 22.1965 2.04019 22.2297 2.07195 22.2297C2.61192 23.1911 3.37423 23.9204 4.35888 24.484C7.78928 26.4068 13.6019 25.7438 19.0334 22.4617C24.4648 19.1797 27.927 14.2731 28.054 10.1954C28.0858 9.0351 27.8635 7.97423 27.3235 7.01281C27.1329 6.71445 26.9106 6.38292 26.6882 6.11771C25.386 4.39379 23.7978 3.0014 22.0191 2.00684C22.5591 2.33836 22.9402 2.76934 23.2261 3.29977Z" fill="black"/>
<path d="M15.1901 30.7168C23.2595 30.7168 29.801 23.8891 29.801 15.4668C29.801 7.04445 23.2595 0.216797 15.1901 0.216797C7.12065 0.216797 0.579102 7.04445 0.579102 15.4668C0.579102 23.8891 7.12065 30.7168 15.1901 30.7168Z" fill="url(#paint0_radial_3900_150441)"/>
<path d="M175.783 18.285C175.783 23.8545 172.544 27.8991 166.953 27.8991C161.363 27.8991 158.028 23.8877 158.028 15.9643C158.028 7.57681 159.997 2.73659 166.382 1.77517L174.132 0.681152V4.72572L166.985 5.88604C163.237 6.48278 162.094 8.60452 161.776 12.7154C163.142 10.4279 165.365 9.33387 168.033 9.33387C172.734 9.26757 175.783 12.7154 175.783 18.285ZM161.903 15.2681V17.3898C161.903 21.4676 163.777 23.7551 166.953 23.7551C170.098 23.7551 172.067 21.7659 172.067 18.2518C172.067 14.7377 170.161 13.1132 167.176 13.1132C164.952 13.1132 163.046 13.8094 161.903 15.2681Z" fill="#F0B900"/>
<path d="M182.962 21.169L190.712 8.80322H194.27V27.501H190.553V15.0027L182.771 27.501H179.214V8.80322H182.93V21.169H182.962Z" fill="#F0B900"/>
<path d="M208.373 21.4672C208.373 19.8428 207.229 19.1466 205.133 19.1466H202.433V16.6933H205.006C206.975 16.6933 207.928 15.8645 207.928 14.4721C207.928 12.9803 206.88 12.2509 204.783 12.2509C202.623 12.2509 201.321 13.1129 200.972 14.8036H197.795C198.24 10.7922 200.908 8.40527 204.91 8.40527C208.849 8.40527 211.422 10.3944 211.422 13.8091C211.422 15.6656 210.374 17.1574 208.785 17.6547C210.691 18.1189 211.93 19.6107 211.93 21.8651C211.93 25.7439 208.849 27.8656 204.847 27.8656C200.686 27.8656 198.018 25.6113 197.7 21.4341H200.908C201.162 23.1911 202.465 23.9868 204.72 23.9868C206.911 23.9868 208.373 23.1911 208.373 21.4672Z" fill="#F0B900"/>
<path d="M226.382 19.876H219.045V27.501H215.329V8.80322H219.045V15.8646H226.382V8.80322H230.098V27.501H226.382V19.876Z" fill="#F0B900"/>
<path d="M242.009 27.8657C236.991 27.8657 233.529 23.7548 233.529 18.1521C233.529 12.5493 237.023 8.43848 242.073 8.43848C247.123 8.43848 250.522 12.4167 250.522 18.3178C250.522 18.4836 250.49 18.9809 250.49 19.1135H237.245C237.531 22.1966 239.373 24.02 242.105 24.02C244.582 24.02 246.075 23.0254 246.774 21.5336H250.141C249.347 24.9814 246.869 27.8657 242.009 27.8657ZM237.309 16.5608H246.806C246.425 14.0412 244.868 12.2841 242.105 12.2841C239.5 12.2841 237.785 13.8423 237.309 16.5608Z" fill="#F0B900"/>
<path d="M269.452 15.2676H266.117C265.641 13.6763 264.18 12.5823 261.48 12.5823C258.399 12.5823 256.557 14.8367 256.557 18.0856C256.557 21.3676 258.431 23.6551 261.48 23.6551C264.18 23.6551 265.641 22.5611 266.117 21.0361H269.452C268.722 25.2464 265.8 27.8655 261.448 27.8655C256.144 27.8655 252.84 23.5888 252.84 18.1187C252.84 12.6818 256.175 8.43829 261.448 8.43829C265.8 8.40514 268.722 11.0905 269.452 15.2676Z" fill="#F0B900"/>
<defs>
<radialGradient id="paint0_radial_3900_150441" cx="0" cy="0" r="1" gradientUnits="userSpaceOnUse" gradientTransform="translate(15.1771 15.4599) scale(14.6079 15.2468)">
<stop offset="0.5" stop-color="white" stop-opacity="0"/>
<stop offset="1" stop-color="white" stop-opacity="0.35"/>
</radialGradient>
</defs>
</svg>
