<svg width="32" height="32" viewBox="0 0 32 32" fill="none" xmlns="http://www.w3.org/2000/svg">
<path fill-rule="evenodd" clip-rule="evenodd" d="M16 32C24.8366 32 32 24.8366 32 16C32 7.16344 24.8366 0 16 0C7.16344 0 0 7.16344 0 16C0 24.8366 7.16344 32 16 32ZM16.0891 5.43703C13.0655 5.43703 10.6145 7.88808 10.6145 10.9115C10.6145 13.935 13.0655 16.3862 16.0891 16.3862C19.1127 16.3862 21.5638 13.935 21.5638 10.9115C21.5638 7.88808 19.1127 5.43703 16.0891 5.43703ZM16.0891 13.1747C14.8393 13.1747 13.826 12.1614 13.826 10.9116C13.826 9.66178 14.8393 8.64856 16.0891 8.64856C17.339 8.64856 18.3522 9.66178 18.3522 10.9116C18.3522 12.1614 17.339 13.1747 16.0891 13.1747ZM18.0219 20.7423C20.2137 20.2958 21.527 19.2579 21.5965 19.2022C22.2379 18.6879 22.3409 17.751 21.8266 17.1096C21.3123 16.4683 20.3755 16.3653 19.734 16.8795C19.7205 16.8905 18.3197 17.9651 16.0148 17.9666C13.71 17.9651 12.2796 16.8905 12.2661 16.8795C11.6246 16.3653 10.6878 16.4683 10.1735 17.1096C9.65919 17.751 9.76221 18.6879 10.4035 19.2022C10.474 19.2587 11.8416 20.3236 14.0947 20.7596L10.9546 24.0412C10.3839 24.633 10.401 25.5754 10.9929 26.146C11.2817 26.4245 11.654 26.563 12.026 26.563C12.416 26.563 12.8056 26.4106 13.0977 26.1076L16.0149 23.0001L19.2267 26.1278C19.8087 26.7088 20.751 26.7078 21.3319 26.1261C21.9127 25.5443 21.912 24.6019 21.3302 24.021L18.0219 20.7423Z" fill="black" fill-opacity="0.87"/>
</svg>
