<svg width="32" height="32" viewBox="0 0 32 32" fill="none" xmlns="http://www.w3.org/2000/svg">
<g clip-path="url(#clip0_5415_230879)">
<path fill-rule="evenodd" clip-rule="evenodd" d="M32.0133 16.0067C32.0133 24.8469 24.8469 32.0133 16.0067 32.0133C7.16643 32.0133 0 24.8469 0 16.0067C0 7.16643 7.16643 0 16.0067 0C24.8469 0 32.0133 7.16643 32.0133 16.0067ZM16.5664 11.8084C15.0071 12.4615 11.9017 13.8076 7.23698 15.8334C6.49063 16.1399 6.09079 16.4332 6.05081 16.7264C5.99179 17.2222 6.61236 17.4147 7.44952 17.6745C7.55754 17.7081 7.66918 17.7427 7.78342 17.7793C8.60974 18.0458 9.70262 18.3524 10.2757 18.3657C10.7955 18.379 11.3686 18.1658 12.0083 17.7259C16.3665 14.7805 18.6056 13.2878 18.7522 13.2611C18.8588 13.2345 18.9921 13.2078 19.0854 13.2878C19.1787 13.3678 19.1787 13.5277 19.1653 13.5677C19.1018 13.8326 16.5017 16.2464 15.3185 17.3448C15.0138 17.6278 14.803 17.8234 14.7538 17.8726C14.6289 18.0012 14.5016 18.1231 14.3792 18.2402C13.6142 18.9725 13.0401 19.522 14.4073 20.4182C15.0289 20.8285 15.5302 21.1706 16.024 21.5074C16.6206 21.9145 17.2061 22.3139 17.9792 22.8172C18.1613 22.9368 18.3357 23.0608 18.5058 23.1818C19.1697 23.6541 19.7688 24.0803 20.5115 24.0167C20.9379 23.9767 21.3778 23.5768 21.6043 22.3773C22.1374 19.5519 23.177 13.4077 23.4169 10.8755C23.4436 10.6622 23.4169 10.3823 23.3903 10.2491C23.3636 10.1158 23.3236 9.94253 23.1637 9.80925C22.9638 9.64931 22.6706 9.62266 22.5373 9.62266C21.9375 9.63599 21.0046 9.95585 16.5664 11.8084Z" fill="black" fill-opacity="0.87"/>
</g>
<defs>
<clipPath id="clip0_5415_230879">
<rect width="32" height="32" fill="white"/>
</clipPath>
</defs>
</svg>
