<svg width="32" height="32" viewBox="0 0 32 32" fill="none" xmlns="http://www.w3.org/2000/svg">
<path fill-rule="evenodd" clip-rule="evenodd" d="M16 32C24.8366 32 32 24.8366 32 16C32 7.16344 24.8366 0 16 0C7.16344 0 0 7.16344 0 16C0 24.8366 7.16344 32 16 32ZM25.4573 10C26.2001 10 26.3561 10.3824 26.2001 10.9028C25.8878 12.334 22.8954 16.5494 22.8954 16.5494C22.6352 16.9657 22.5311 17.1739 22.8954 17.6422C23.0237 17.8219 23.2974 18.09 23.6106 18.3968C23.9327 18.7123 24.2965 19.0687 24.5868 19.4117C25.6418 20.5986 26.4369 21.5999 26.6584 22.29C26.8608 22.9825 26.5099 23.3333 25.8082 23.3333H23.352C22.6942 23.3333 22.3629 22.9648 21.6471 22.1685C21.3437 21.831 20.9712 21.4167 20.4754 20.9209C19.0182 19.5158 18.3937 19.3336 18.0294 19.3336C17.535 19.3336 17.3871 19.4737 17.3871 20.1754V22.3781C17.3871 22.9825 17.194 23.3333 15.6327 23.3333C13.0306 23.3333 10.1711 21.7536 8.14145 18.8392C5.09701 14.5718 4.26432 11.3452 4.26432 10.6946C4.26432 10.3303 4.40468 10 5.10644 10H7.56258C8.1903 10 8.42642 10.2747 8.66183 10.9549C9.86309 14.4541 11.8885 17.5122 12.7211 17.5122C13.0334 17.5122 13.1766 17.3684 13.1766 16.5754V12.9585C13.1202 11.9289 12.7606 11.4837 12.4942 11.1539C12.3297 10.9502 12.2008 10.7906 12.2008 10.5646C12.2008 10.2899 12.4355 10 12.8257 10H16.6854C17.2059 10 17.3871 10.2783 17.3871 10.9028V15.7688C17.3871 16.2892 17.6131 16.4713 17.7692 16.4713C18.0815 16.4713 18.3417 16.2892 18.9141 15.7167C20.6836 13.7391 21.9326 10.6946 21.9326 10.6946C22.0887 10.3303 22.3767 10 23.0012 10H25.4573Z" fill="black" fill-opacity="0.87"/>
</svg>
