<svg width="32" height="32" viewBox="0 0 32 32" fill="none" xmlns="http://www.w3.org/2000/svg">
<g clip-path="url(#clip0_5415_230893)">
<path fill-rule="evenodd" clip-rule="evenodd" d="M32.0065 16.0067C32.0065 24.8469 24.8401 32.0133 15.9998 32.0133C7.15959 32.0133 -0.00683594 24.8469 -0.00683594 16.0067C-0.00683594 7.16643 7.15959 0 15.9998 0C24.8401 0 32.0065 7.16643 32.0065 16.0067ZM25.5585 11.2359C25.4437 10.8154 25.22 10.4321 24.9094 10.1241C24.5988 9.81603 24.2123 9.59407 23.7884 9.48028C22.2363 9.06046 15.9897 9.06046 15.9897 9.06046C15.9897 9.06046 9.7431 9.07318 8.19106 9.49301C7.76711 9.60679 7.3806 9.82875 7.07004 10.1368C6.75948 10.4448 6.53569 10.8281 6.42097 11.2486C5.95151 13.9839 5.76937 18.1516 6.4338 20.7774C6.54852 21.1979 6.7723 21.5813 7.08287 21.8893C7.39343 22.1973 7.77993 22.4193 8.20389 22.5331C9.75592 22.9529 16.0025 22.9529 16.0025 22.9529C16.0025 22.9529 22.2492 22.9529 23.8012 22.5331C24.2252 22.4193 24.6117 22.1973 24.9222 21.8893C25.2328 21.5813 25.4566 21.1979 25.5713 20.7774C26.0664 18.0384 26.219 13.8732 25.5585 11.2359ZM13.4094 18.9836L18.5914 16.0067L13.4094 13.0297V18.9836Z" fill="black" fill-opacity="0.87"/>
</g>
<defs>
<clipPath id="clip0_5415_230893">
<rect width="32" height="32" fill="white"/>
</clipPath>
</defs>
</svg>
