<svg width="225" height="48" viewBox="0 0 225 48" fill="none" xmlns="http://www.w3.org/2000/svg">
<path d="M0 12C0 5.37258 5.37258 0 12 0H213C219.627 0 225 5.37258 225 12V36C225 42.6274 219.627 48 213 48H12C5.37259 48 0 42.6274 0 36V12Z" fill="#FDD835"/>
<path d="M24.9139 18.44C26.1266 18.44 27.0389 18.7347 27.6509 19.324C28.2629 19.902 28.5689 20.6613 28.5689 21.602C28.5689 22.1687 28.4443 22.656 28.1949 23.064C27.9569 23.472 27.5943 23.7893 27.1069 24.016C27.7416 24.1633 28.2346 24.475 28.5859 24.951C28.9373 25.4157 29.1129 25.988 29.1129 26.668C29.1129 27.6993 28.7786 28.5153 28.1099 29.116C27.4413 29.7053 26.5063 30 25.3049 30H21.3269V18.44H24.9139ZM24.7269 23.353C25.4069 23.353 25.9056 23.234 26.2229 22.996C26.5516 22.7467 26.7159 22.3613 26.7159 21.84C26.7159 21.3073 26.5516 20.9333 26.2229 20.718C25.9056 20.5027 25.4069 20.395 24.7269 20.395H23.1119V23.353H24.7269ZM25.1349 28.045C25.8489 28.045 26.3816 27.909 26.7329 27.637C27.0843 27.365 27.2599 26.9513 27.2599 26.396C27.2599 25.8293 27.0843 25.427 26.7329 25.189C26.3816 24.951 25.8489 24.832 25.1349 24.832H23.1119V28.045H25.1349ZM34.6744 21.5C35.5131 21.5 36.2384 21.6927 36.8504 22.078C37.4738 22.452 37.9554 22.9677 38.2954 23.625C38.6354 24.271 38.8054 25.002 38.8054 25.818C38.8054 26.634 38.6354 27.3707 38.2954 28.028C37.9554 28.6853 37.4738 29.2067 36.8504 29.592C36.2384 29.9773 35.5131 30.17 34.6744 30.17C33.8358 30.17 33.1048 29.9773 32.4814 29.592C31.8694 29.2067 31.3934 28.6853 31.0534 28.028C30.7134 27.3707 30.5434 26.634 30.5434 25.818C30.5434 25.002 30.7134 24.271 31.0534 23.625C31.3934 22.9677 31.8694 22.452 32.4814 22.078C33.1048 21.6927 33.8358 21.5 34.6744 21.5ZM34.6744 23.37C33.9491 23.37 33.3654 23.5967 32.9234 24.05C32.4928 24.492 32.2774 25.0813 32.2774 25.818C32.2774 26.566 32.4928 27.1667 32.9234 27.62C33.3654 28.0733 33.9491 28.3 34.6744 28.3C35.3998 28.3 35.9778 28.0733 36.4084 27.62C36.8504 27.1667 37.0714 26.566 37.0714 25.818C37.0714 25.0813 36.8504 24.492 36.4084 24.05C35.9778 23.5967 35.3998 23.37 34.6744 23.37ZM42.3333 21.67V27.178L45.9373 21.67H47.5863V30H45.8693V24.424L42.2483 30H40.5993V21.67H42.3333ZM43.0983 18.967C43.2003 19.239 43.342 19.443 43.5233 19.579C43.7046 19.715 43.9483 19.783 44.2543 19.783C44.5603 19.783 44.804 19.715 44.9853 19.579C45.1666 19.443 45.3083 19.239 45.4103 18.967H46.5833C46.538 19.6017 46.3226 20.123 45.9373 20.531C45.5633 20.9277 45.0023 21.126 44.2543 21.126C43.495 21.126 42.9283 20.9277 42.5543 20.531C42.1803 20.123 41.9706 19.6017 41.9253 18.967H43.0983ZM49.2514 21.67H56.0174V23.472H53.5014V30H51.7674V23.472H49.2514V21.67ZM59.4013 21.67V27.178L63.0053 21.67H64.6543V30H62.9373V24.424L59.3163 30H57.6673V21.67H59.4013ZM74.8181 30H71.2821V21.67H74.6651C75.5378 21.67 76.2178 21.8627 76.7051 22.248C77.1925 22.6333 77.4361 23.1717 77.4361 23.863C77.4361 24.2823 77.3341 24.645 77.1301 24.951C76.9375 25.2457 76.6768 25.4553 76.3481 25.58C76.7788 25.6933 77.1301 25.9143 77.4021 26.243C77.6741 26.5603 77.8101 26.9797 77.8101 27.501C77.8101 28.317 77.5438 28.9403 77.0111 29.371C76.4898 29.7903 75.7588 30 74.8181 30ZM72.9651 23.285V25.172H74.5121C74.9315 25.172 75.2488 25.0983 75.4641 24.951C75.6795 24.7923 75.7871 24.5487 75.7871 24.22C75.7871 23.8913 75.6908 23.6533 75.4981 23.506C75.3055 23.3587 74.9938 23.285 74.5631 23.285H72.9651ZM72.9651 26.26V28.368H74.5971C75.1298 28.368 75.5208 28.283 75.7701 28.113C76.0195 27.943 76.1441 27.6767 76.1441 27.314C76.1441 26.94 76.0195 26.6737 75.7701 26.515C75.5208 26.345 75.1411 26.26 74.6311 26.26H72.9651ZM83.0679 28.164C83.1359 28.1753 83.2152 28.1867 83.3059 28.198C83.4079 28.2093 83.5155 28.215 83.6289 28.215C83.9915 28.215 84.2579 28.0167 84.4279 27.62C84.5979 27.212 84.7282 26.5887 84.8189 25.75C84.8755 25.2173 84.9209 24.611 84.9549 23.931C85.0002 23.251 85.0342 22.4973 85.0569 21.67H90.4969V30H88.7799V23.455H86.5019C86.4905 23.8743 86.4679 24.3163 86.4339 24.781C86.4112 25.2343 86.3829 25.6593 86.3489 26.056C86.2695 27.0307 86.1449 27.8183 85.9749 28.419C85.8049 29.0083 85.5669 29.439 85.2609 29.711C84.9549 29.9717 84.5469 30.102 84.0369 30.102C83.8555 30.102 83.6799 30.0907 83.5099 30.068C83.3399 30.0453 83.1925 30.0113 83.0679 29.966V28.164ZM94.5009 21.67V27.178L98.1049 21.67H99.7539V30H98.0369V24.424L94.4159 30H92.7669V21.67H94.5009ZM106.74 30V26.175C106.547 26.5263 106.275 26.8153 105.924 27.042C105.573 27.2573 105.119 27.365 104.564 27.365C103.669 27.365 102.977 27.1157 102.49 26.617C102.003 26.107 101.759 25.4043 101.759 24.509V21.67H103.493V23.999C103.493 24.5543 103.635 24.9623 103.918 25.223C104.213 25.4723 104.626 25.597 105.159 25.597C105.499 25.597 105.805 25.5573 106.077 25.478C106.349 25.3987 106.57 25.2853 106.74 25.138V21.67H108.474V30H106.74ZM115.899 30V26.6H112.482V30H110.748V21.67H112.482V24.815H115.899V21.67H117.633V30H115.899ZM128.855 21.67V30H127.138V21.67H128.855ZM121.647 21.67V24.475H123.041C123.981 24.475 124.741 24.6733 125.319 25.07C125.908 25.4667 126.203 26.1467 126.203 27.11C126.203 27.7673 126.061 28.3113 125.778 28.742C125.506 29.1613 125.132 29.4787 124.656 29.694C124.191 29.898 123.664 30 123.075 30H119.913V21.67H121.647ZM122.99 25.869H121.647V28.266H122.956C123.466 28.266 123.857 28.1753 124.129 27.994C124.401 27.8013 124.537 27.4953 124.537 27.076C124.537 26.6793 124.418 26.379 124.18 26.175C123.942 25.971 123.545 25.869 122.99 25.869ZM132.87 21.67V27.178L136.474 21.67H138.123V30H136.406V24.424L132.785 30H131.136V21.67H132.87ZM133.635 18.967C133.737 19.239 133.879 19.443 134.06 19.579C134.242 19.715 134.485 19.783 134.791 19.783C135.097 19.783 135.341 19.715 135.522 19.579C135.704 19.443 135.845 19.239 135.947 18.967H137.12C137.075 19.6017 136.86 20.123 136.474 20.531C136.1 20.9277 135.539 21.126 134.791 21.126C134.032 21.126 133.465 20.9277 133.091 20.531C132.717 20.123 132.508 19.6017 132.462 18.967H133.635ZM149.409 30L146.485 25.971V30H144.751V21.67H146.485V25.529L149.545 21.67H151.483L148.27 25.529L151.517 30H149.409ZM158.655 30.034C158.213 30.034 157.856 29.9207 157.584 29.694C157.312 29.456 157.147 29.099 157.091 28.623C156.841 29.0877 156.518 29.4447 156.122 29.694C155.725 29.9433 155.243 30.068 154.677 30.068C153.94 30.068 153.345 29.8697 152.892 29.473C152.45 29.0763 152.229 28.5097 152.229 27.773C152.229 27.2857 152.319 26.8833 152.501 26.566C152.693 26.2487 152.971 25.9823 153.334 25.767C153.696 25.5403 154.138 25.3307 154.66 25.138L156.955 24.288C156.909 23.8913 156.745 23.6193 156.462 23.472C156.178 23.3247 155.838 23.251 155.442 23.251C155 23.251 154.637 23.3303 154.354 23.489C154.07 23.6477 153.895 23.897 153.827 24.237H152.331C152.41 23.625 152.597 23.115 152.892 22.707C153.186 22.299 153.56 21.9987 154.014 21.806C154.467 21.602 154.966 21.5 155.51 21.5C156.462 21.5 157.227 21.755 157.805 22.265C158.383 22.7637 158.666 23.54 158.655 24.594L158.604 27.552C158.604 27.858 158.649 28.0733 158.74 28.198C158.842 28.3113 159 28.368 159.216 28.368H159.471V30C159.346 30.0113 159.21 30.017 159.063 30.017C158.915 30.0283 158.779 30.034 158.655 30.034ZM153.912 27.399C153.912 27.7163 154.031 27.9543 154.269 28.113C154.518 28.2603 154.841 28.334 155.238 28.334C155.612 28.334 155.952 28.283 156.258 28.181C156.564 28.0677 156.79 27.926 156.938 27.756L156.972 25.461L155.459 26.039C154.903 26.2543 154.507 26.4583 154.269 26.651C154.031 26.8323 153.912 27.0817 153.912 27.399ZM165.223 21.874C165.96 21.874 166.594 22.0383 167.127 22.367C167.671 22.6843 168.09 23.1433 168.385 23.744C168.691 24.3447 168.844 25.0587 168.844 25.886C168.844 26.7133 168.68 27.45 168.351 28.096C168.034 28.742 167.569 29.252 166.957 29.626C166.345 29.9887 165.603 30.17 164.73 30.17C163.869 30.17 163.126 29.9717 162.503 29.575C161.88 29.1783 161.404 28.589 161.075 27.807C160.746 27.0137 160.582 26.0277 160.582 24.849C160.582 23.6023 160.701 22.537 160.939 21.653C161.177 20.7577 161.579 20.0493 162.146 19.528C162.713 18.9953 163.489 18.661 164.475 18.525L168.079 18.032V19.834L164.747 20.344C164.169 20.4347 163.71 20.6047 163.37 20.854C163.03 21.092 162.781 21.4207 162.622 21.84C162.475 22.2593 162.373 22.775 162.316 23.387C162.633 22.877 163.041 22.4973 163.54 22.248C164.039 21.9987 164.6 21.874 165.223 21.874ZM164.832 23.591C164.311 23.591 163.835 23.6703 163.404 23.829C162.985 23.9763 162.645 24.2143 162.384 24.543V25.495C162.384 26.4017 162.588 27.1043 162.996 27.603C163.415 28.0903 163.993 28.334 164.73 28.334C165.467 28.334 166.045 28.1243 166.464 27.705C166.895 27.2743 167.11 26.668 167.11 25.886C167.11 25.104 166.906 24.526 166.498 24.152C166.09 23.778 165.535 23.591 164.832 23.591ZM172.369 21.67V27.178L175.973 21.67H177.622V30H175.905V24.424L172.284 30H170.635V21.67H172.369ZM185.067 30V26.6H181.65V30H179.916V21.67H181.65V24.815H185.067V21.67H186.801V30H185.067ZM196.323 27.348C196.21 27.858 196 28.3283 195.694 28.759C195.388 29.1783 194.974 29.5183 194.453 29.779C193.943 30.0397 193.308 30.17 192.549 30.17C191.778 30.17 191.093 29.983 190.492 29.609C189.903 29.235 189.438 28.7193 189.098 28.062C188.769 27.4047 188.605 26.6623 188.605 25.835C188.605 24.9963 188.775 24.254 189.115 23.608C189.455 22.9507 189.92 22.435 190.509 22.061C191.11 21.687 191.801 21.5 192.583 21.5C193.365 21.5 194.051 21.687 194.64 22.061C195.229 22.4237 195.688 22.9337 196.017 23.591C196.346 24.2483 196.51 25.019 196.51 25.903C196.51 25.937 196.504 25.9993 196.493 26.09C196.493 26.1693 196.493 26.226 196.493 26.26H190.322C190.39 26.9513 190.622 27.4897 191.019 27.875C191.427 28.2603 191.948 28.453 192.583 28.453C193.161 28.453 193.626 28.351 193.977 28.147C194.34 27.943 194.6 27.6767 194.759 27.348H196.323ZM192.583 23.217C191.982 23.217 191.489 23.387 191.104 23.727C190.719 24.0557 190.469 24.5203 190.356 25.121H194.776C194.697 24.5543 194.47 24.0953 194.096 23.744C193.733 23.3927 193.229 23.217 192.583 23.217ZM197.484 21.67H204.25V23.472H201.734V30H200V23.472H197.484V21.67Z" fill="black" fill-opacity="0.87"/>
</svg>
