<svg width="161" height="48" viewBox="0 0 161 48" fill="none" xmlns="http://www.w3.org/2000/svg">
<path d="M0 12C0 5.37258 5.37258 0 12 0H149C155.627 0 161 5.37258 161 12V36C161 42.6274 155.627 48 149 48H12C5.37259 48 0 42.6274 0 36V12Z" fill="#FDD835"/>
<path d="M30.9005 22.214H29.1665C28.9851 21.568 28.6508 21.0807 28.1635 20.752C27.6761 20.412 27.0528 20.242 26.2935 20.242C25.6815 20.242 25.1318 20.395 24.6445 20.701C24.1685 20.9957 23.7888 21.4377 23.5055 22.027C23.2221 22.6163 23.0805 23.3473 23.0805 24.22C23.0805 25.0813 23.2221 25.8123 23.5055 26.413C23.7888 27.0023 24.1685 27.45 24.6445 27.756C25.1318 28.0507 25.6815 28.198 26.2935 28.198C27.0528 28.198 27.6761 28.0337 28.1635 27.705C28.6508 27.365 28.9851 26.872 29.1665 26.226H30.9005C30.6965 27.45 30.1978 28.4247 29.4045 29.15C28.6225 29.864 27.5855 30.221 26.2935 30.221C25.4775 30.221 24.7521 30.068 24.1175 29.762C23.4941 29.456 22.9671 29.031 22.5365 28.487C22.1058 27.943 21.7771 27.3083 21.5505 26.583C21.3351 25.8577 21.2275 25.07 21.2275 24.22C21.2275 23.37 21.3351 22.5823 21.5505 21.857C21.7771 21.1317 22.1058 20.497 22.5365 19.953C22.9671 19.409 23.4941 18.984 24.1175 18.678C24.7521 18.372 25.4775 18.219 26.2935 18.219C27.5855 18.219 28.6225 18.5817 29.4045 19.307C30.1978 20.021 30.6965 20.99 30.9005 22.214ZM36.4949 21.5C37.3336 21.5 38.0589 21.6927 38.6709 22.078C39.2943 22.452 39.7759 22.9677 40.1159 23.625C40.4559 24.271 40.6259 25.002 40.6259 25.818C40.6259 26.634 40.4559 27.3707 40.1159 28.028C39.7759 28.6853 39.2943 29.2067 38.6709 29.592C38.0589 29.9773 37.3336 30.17 36.4949 30.17C35.6563 30.17 34.9253 29.9773 34.3019 29.592C33.6899 29.2067 33.2139 28.6853 32.8739 28.028C32.5339 27.3707 32.3639 26.634 32.3639 25.818C32.3639 25.002 32.5339 24.271 32.8739 23.625C33.2139 22.9677 33.6899 22.452 34.3019 22.078C34.9253 21.6927 35.6563 21.5 36.4949 21.5ZM36.4949 23.37C35.7696 23.37 35.1859 23.5967 34.7439 24.05C34.3133 24.492 34.0979 25.0813 34.0979 25.818C34.0979 26.566 34.3133 27.1667 34.7439 27.62C35.1859 28.0733 35.7696 28.3 36.4949 28.3C37.2203 28.3 37.7983 28.0733 38.2289 27.62C38.6709 27.1667 38.8919 26.566 38.8919 25.818C38.8919 25.0813 38.6709 24.492 38.2289 24.05C37.7983 23.5967 37.2203 23.37 36.4949 23.37ZM45.1908 28.436C45.7121 28.436 46.1258 28.3453 46.4318 28.164C46.7491 27.9827 46.9078 27.6993 46.9078 27.314C46.9078 26.9513 46.7775 26.6907 46.5168 26.532C46.2675 26.362 45.8935 26.277 45.3948 26.277H44.1368V25.189H45.3268C45.7915 25.189 46.1315 25.104 46.3468 24.934C46.5735 24.7527 46.6868 24.509 46.6868 24.203C46.6868 23.5457 46.1995 23.217 45.2248 23.217C44.7261 23.217 44.3238 23.3133 44.0178 23.506C43.7231 23.6987 43.5361 23.982 43.4568 24.356H41.9778C42.0798 23.4607 42.4255 22.7637 43.0148 22.265C43.6041 21.755 44.3635 21.5 45.2928 21.5C46.2108 21.5 46.9418 21.7097 47.4858 22.129C48.0411 22.5483 48.3188 23.1433 48.3188 23.914C48.3188 24.3333 48.2055 24.696 47.9788 25.002C47.7521 25.308 47.4575 25.5177 47.0948 25.631C47.5368 25.733 47.8881 25.9483 48.1488 26.277C48.4208 26.5943 48.5568 27.0023 48.5568 27.501C48.5568 28.079 48.4095 28.5663 48.1148 28.963C47.8315 29.3597 47.4405 29.66 46.9418 29.864C46.4431 30.068 45.8821 30.17 45.2588 30.17C44.2955 30.17 43.5191 29.9263 42.9298 29.439C42.3405 28.9403 42.0061 28.2263 41.9268 27.297H43.4228C43.4795 27.6823 43.6551 27.9713 43.9498 28.164C44.2558 28.3453 44.6695 28.436 45.1908 28.436ZM49.3875 32.142V28.198H50.1695C50.6909 27.6767 51.0762 26.8833 51.3255 25.818C51.5749 24.7413 51.7052 23.3587 51.7165 21.67H57.1395V28.198H58.3805V32.142H56.7145V30H51.0535V32.142H49.3875ZM53.1275 23.455C53.1049 24.4523 53.0029 25.342 52.8215 26.124C52.6515 26.906 52.3682 27.5973 51.9715 28.198H55.4055V23.455H53.1275ZM65.754 30.034C65.312 30.034 64.955 29.9207 64.683 29.694C64.411 29.456 64.2467 29.099 64.19 28.623C63.9407 29.0877 63.6177 29.4447 63.221 29.694C62.8243 29.9433 62.3427 30.068 61.776 30.068C61.0393 30.068 60.4443 29.8697 59.991 29.473C59.549 29.0763 59.328 28.5097 59.328 27.773C59.328 27.2857 59.4187 26.8833 59.6 26.566C59.7927 26.2487 60.0703 25.9823 60.433 25.767C60.7957 25.5403 61.2377 25.3307 61.759 25.138L64.054 24.288C64.0087 23.8913 63.8443 23.6193 63.561 23.472C63.2777 23.3247 62.9377 23.251 62.541 23.251C62.099 23.251 61.7363 23.3303 61.453 23.489C61.1697 23.6477 60.994 23.897 60.926 24.237H59.43C59.5093 23.625 59.6963 23.115 59.991 22.707C60.2857 22.299 60.6597 21.9987 61.113 21.806C61.5663 21.602 62.065 21.5 62.609 21.5C63.561 21.5 64.326 21.755 64.904 22.265C65.482 22.7637 65.7653 23.54 65.754 24.594L65.703 27.552C65.703 27.858 65.7483 28.0733 65.839 28.198C65.941 28.3113 66.0997 28.368 66.315 28.368H66.57V30C66.4453 30.0113 66.3093 30.017 66.162 30.017C66.0147 30.0283 65.8787 30.034 65.754 30.034ZM61.011 27.399C61.011 27.7163 61.13 27.9543 61.368 28.113C61.6173 28.2603 61.9403 28.334 62.337 28.334C62.711 28.334 63.051 28.283 63.357 28.181C63.663 28.0677 63.8897 27.926 64.037 27.756L64.071 25.461L62.558 26.039C62.0027 26.2543 61.606 26.4583 61.368 26.651C61.13 26.8323 61.011 27.0817 61.011 27.399ZM67.1603 21.67H73.9263V23.472H71.4103V30H69.6763V23.472H67.1603V21.67ZM77.3103 21.67V24.475H78.7043C79.6449 24.475 80.4043 24.6733 80.9823 25.07C81.5716 25.4667 81.8663 26.1467 81.8663 27.11C81.8663 27.7673 81.7246 28.3113 81.4413 28.742C81.1693 29.1613 80.7953 29.4787 80.3193 29.694C79.8546 29.898 79.3276 30 78.7383 30H75.5763V21.67H77.3103ZM78.6533 25.869H77.3103V28.266H78.6193C79.1293 28.266 79.5203 28.1753 79.7923 27.994C80.0643 27.8013 80.2003 27.4953 80.2003 27.076C80.2003 26.6793 80.0813 26.379 79.8433 26.175C79.6053 25.971 79.2086 25.869 78.6533 25.869ZM92.98 30V23.455H89.597V30H87.863V21.67H94.714V30H92.98ZM102.979 30.034C102.537 30.034 102.18 29.9207 101.908 29.694C101.636 29.456 101.471 29.099 101.415 28.623C101.165 29.0877 100.842 29.4447 100.446 29.694C100.049 29.9433 99.5673 30.068 99.0006 30.068C98.264 30.068 97.669 29.8697 97.2156 29.473C96.7736 29.0763 96.5526 28.5097 96.5526 27.773C96.5526 27.2857 96.6433 26.8833 96.8246 26.566C97.0173 26.2487 97.295 25.9823 97.6576 25.767C98.0203 25.5403 98.4623 25.3307 98.9836 25.138L101.279 24.288C101.233 23.8913 101.069 23.6193 100.786 23.472C100.502 23.3247 100.162 23.251 99.7656 23.251C99.3236 23.251 98.961 23.3303 98.6776 23.489C98.3943 23.6477 98.2186 23.897 98.1506 24.237H96.6546C96.734 23.625 96.921 23.115 97.2156 22.707C97.5103 22.299 97.8843 21.9987 98.3376 21.806C98.791 21.602 99.2896 21.5 99.8336 21.5C100.786 21.5 101.551 21.755 102.129 22.265C102.707 22.7637 102.99 23.54 102.979 24.594L102.928 27.552C102.928 27.858 102.973 28.0733 103.064 28.198C103.166 28.3113 103.324 28.368 103.54 28.368H103.795V30C103.67 30.0113 103.534 30.017 103.387 30.017C103.239 30.0283 103.103 30.034 102.979 30.034ZM98.2356 27.399C98.2356 27.7163 98.3546 27.9543 98.5926 28.113C98.842 28.2603 99.165 28.334 99.5616 28.334C99.9356 28.334 100.276 28.283 100.582 28.181C100.888 28.0677 101.114 27.926 101.262 27.756L101.296 25.461L99.7826 26.039C99.2273 26.2543 98.8306 26.4583 98.5926 26.651C98.3546 26.8323 98.2356 27.0817 98.2356 27.399ZM106.912 23.132C107.139 22.6333 107.479 22.2423 107.932 21.959C108.385 21.6643 108.946 21.517 109.615 21.517C110.363 21.517 111.02 21.6927 111.587 22.044C112.154 22.384 112.596 22.8713 112.913 23.506C113.23 24.1407 113.389 24.8943 113.389 25.767C113.389 26.6283 113.23 27.3933 112.913 28.062C112.596 28.7193 112.154 29.235 111.587 29.609C111.032 29.9717 110.38 30.153 109.632 30.153C109.009 30.153 108.476 30.0453 108.034 29.83C107.603 29.6033 107.258 29.2633 106.997 28.81V33.4H105.263V21.67H106.912V23.132ZM109.258 28.317C110.051 28.317 110.646 28.0847 111.043 27.62C111.451 27.1553 111.655 26.5433 111.655 25.784C111.655 25.0133 111.451 24.4183 111.043 23.999C110.646 23.5683 110.046 23.353 109.241 23.353C108.686 23.353 108.215 23.4323 107.83 23.591C107.456 23.7497 107.178 24.0047 106.997 24.356V27.348C107.178 27.6993 107.456 27.9487 107.83 28.096C108.215 28.2433 108.691 28.317 109.258 28.317ZM118.88 21.5C119.718 21.5 120.444 21.6927 121.056 22.078C121.679 22.452 122.161 22.9677 122.501 23.625C122.841 24.271 123.011 25.002 123.011 25.818C123.011 26.634 122.841 27.3707 122.501 28.028C122.161 28.6853 121.679 29.2067 121.056 29.592C120.444 29.9773 119.718 30.17 118.88 30.17C118.041 30.17 117.31 29.9773 116.687 29.592C116.075 29.2067 115.599 28.6853 115.259 28.028C114.919 27.3707 114.749 26.634 114.749 25.818C114.749 25.002 114.919 24.271 115.259 23.625C115.599 22.9677 116.075 22.452 116.687 22.078C117.31 21.6927 118.041 21.5 118.88 21.5ZM118.88 23.37C118.154 23.37 117.571 23.5967 117.129 24.05C116.698 24.492 116.483 25.0813 116.483 25.818C116.483 26.566 116.698 27.1667 117.129 27.62C117.571 28.0733 118.154 28.3 118.88 28.3C119.605 28.3 120.183 28.0733 120.614 27.62C121.056 27.1667 121.277 26.566 121.277 25.818C121.277 25.0813 121.056 24.492 120.614 24.05C120.183 23.5967 119.605 23.37 118.88 23.37ZM123.889 28.164C123.957 28.1753 124.036 28.1867 124.127 28.198C124.229 28.2093 124.336 28.215 124.45 28.215C124.812 28.215 125.079 28.0167 125.249 27.62C125.419 27.212 125.549 26.5887 125.64 25.75C125.696 25.2173 125.742 24.611 125.776 23.931C125.821 23.251 125.855 22.4973 125.878 21.67H131.318V30H129.601V23.455H127.323C127.311 23.8743 127.289 24.3163 127.255 24.781C127.232 25.2343 127.204 25.6593 127.17 26.056C127.09 27.0307 126.966 27.8183 126.796 28.419C126.626 29.0083 126.388 29.439 126.082 29.711C125.776 29.9717 125.368 30.102 124.858 30.102C124.676 30.102 124.501 30.0907 124.331 30.068C124.161 30.0453 124.013 30.0113 123.889 29.966V28.164ZM135.322 21.67V24.475H136.716C137.656 24.475 138.416 24.6733 138.994 25.07C139.583 25.4667 139.878 26.1467 139.878 27.11C139.878 27.7673 139.736 28.3113 139.453 28.742C139.181 29.1613 138.807 29.4787 138.331 29.694C137.866 29.898 137.339 30 136.75 30H133.588V21.67H135.322ZM136.665 25.869H135.322V28.266H136.631C137.141 28.266 137.532 28.1753 137.804 27.994C138.076 27.8013 138.212 27.4953 138.212 27.076C138.212 26.6793 138.093 26.379 137.855 26.175C137.617 25.971 137.22 25.869 136.665 25.869Z" fill="black" fill-opacity="0.87"/>
</svg>
